<svg version="1.1" id="Layer_1" xmlns:x="ns_extend;" xmlns:i="ns_ai;" xmlns:graph="ns_graphs;" xmlns="http://www.w3.org/2000/svg" xmlns:xlink="http://www.w3.org/1999/xlink" x="0px" y="0px" viewBox="0 0 439.1 663.5" style="enable-background:new 0 0 439.1 663.5;" xml:space="preserve">
 <style type="text/css">
  .st0{fill:#121312;}
 </style>
 <metadata>
  <sfw xmlns="ns_sfw;">
   <slices>
   </slices>
   <sliceSourceBounds bottomLeftOrigin="true" height="663.5" width="439.1" x="97.9" y="96.5">
   </sliceSourceBounds>
  </sfw>
 </metadata>
 <g>
  <g>
   <path class="st0" d="M96.1,580.6c-7-2.8-15.5-5.1-25.6-7h-0.2c-9.8-1.7-17.1-3.3-22-4.8c-4.9-1.4-8.8-3.4-11.6-5.8
			c-2.8-2.5-4.2-5.8-4.2-10.2c0-6.3,2.4-11.2,7.1-14.5c4.8-3.3,11-5,18.8-5c8.5,0,15.4,2.2,20.6,6.5c4.7,3.9,7.6,8.8,8.7,14.8
			c0.2,1.2,1.2,2.1,2.4,2.1L114,557c1.5,0,2.6-1.2,2.5-2.7c-0.8-8-3.4-15.2-7.9-21.8c-5-7.3-11.8-12.9-20.5-17c-8.7-4-18.6-6-29.7-6
			c-10.5,0-20,1.9-28.4,5.8c-8.4,3.9-15,9.3-19.7,16.2c-4.7,6.9-7,14.7-7,23.3c0,9.5,2.1,17.1,6.3,22.9c4.2,5.8,9.6,10.1,16.4,13.1
			s14.9,5.3,24.4,7l1.1,0.2c10.1,1.9,17.6,3.5,22.6,5c5,1.4,8.9,3.5,11.8,6c2.9,2.6,4.3,6.1,4.3,10.6c0,6.3-2.6,11.3-7.8,14.9
			c-5.2,3.6-11.9,5.4-20.1,5.4c-9.8,0-17.7-2.5-23.8-7.5c-5.5-4.5-8.7-10.3-9.7-17.4c-0.2-1.2-1.2-2.2-2.4-2.2l-23.9-0.4
			c-1.4,0-2.6,1.2-2.5,2.7c0.7,8.7,3.4,16.6,8.2,23.5c5.2,7.7,12.5,13.8,21.7,18.1s19.8,6.6,31.8,6.6c11.1,0,21-2,29.8-6
			c8.8-4,15.7-9.6,20.6-16.7c5-7.1,7.4-15.2,7.4-24.1c0-9.5-2.2-17.2-6.5-23C108.7,587.8,103.1,583.5,96.1,580.6L96.1,580.6z">
   </path>
   <path class="st0" d="M242.8,638.8h-3.7c-2.2,0-3.9-0.6-5.1-1.7c-1.2-1.2-1.8-3-1.8-5.6v-41.2c0-13.1-4.2-23.1-12.5-29.9
			c-8.4-6.8-18.2-10.3-33.6-10.3c-14.5,0-25.9,3.2-34.8,9.3c-8.1,5.6-13,13.4-14.7,23.2c-0.3,1.5,0.9,2.9,2.4,2.9h22
			c1.1,0,2.1-0.7,2.4-1.8c1-3.6,3.2-6.6,6.6-8.9c4-2.7,8.7-4,14.9-4c11.7,0,20,7.2,20,17.9v3.3c0,1.4-1.1,2.5-2.5,2.5h-19.9
			c-16.1,0-28.4,3.2-36.7,9.5c-8.4,6.3-12.5,15.3-12.5,27c0,10.1,3.8,18,11.4,23.8c5.7,4.3,12.6,6.8,19.6,7.9
			c5.4,0.8,10.9,1.1,16.3,0.3c5.6-0.9,10.2-3.2,14.8-6.6c4.1-3,7.6-6.8,10.7-11.5c1.5-2.6,5.5-1.6,5.5,1.5v3.7c0,6.7,5.4,12,12,12
			h19.1c1.4,0,2.5-1.1,2.5-2.5v-18.4C245.3,639.9,244.2,638.8,242.8,638.8L242.8,638.8z M204.8,616.6c0,5.3-1.1,10-3.4,13.9
			c-4.7,8.3-13,12.6-22.5,12.6c-5.5,0-9.9-1.3-13.2-3.9c-3.3-2.6-5-6-5-10.4c0-4.9,1.8-8.7,5.5-11.3c3.7-2.7,8.9-4,15.7-4h20.3
			c1.4,0,2.5,1.1,2.5,2.5L204.8,616.6L204.8,616.6z">
   </path>
   <path class="st0" d="M322.8,511.1h-28.6c-15.1,0-27.3,12.2-27.3,27.3v12c0,1.4-1.1,2.5-2.5,2.5h-16.3c-1.4,0-2.5,1.1-2.5,2.5v18.6
			c0,1.4,1.1,2.5,2.5,2.5h16.3c1.4,0,2.5,1.1,2.5,2.5v80.9c0,1.4,1.1,2.5,2.5,2.5h22.2c1.4,0,2.5-1.1,2.5-2.5v-80.9
			c0-1.4,1.1-2.5,2.5-2.5h25.9c1.4,0,2.5-1.1,2.5-2.5v-18.6c0-1.4-1.1-2.5-2.5-2.5h-25.9c-1.4,0-2.5-1.1-2.5-2.5v-10.8
			c0-2.7,2.2-5,5-5h23.7c1.4,0,2.5-1.1,2.5-2.5v-18.6C325.3,512.2,324.2,511.1,322.8,511.1L322.8,511.1z">
   </path>
   <path class="st0" d="M431.9,575.1c-4.8-8.1-11.4-14.2-19.8-18.6c-8.4-4.3-18-6.5-28.9-6.5s-20.4,2.4-28.7,7.1
			c-8.4,4.7-14.8,11.3-19.4,19.9c-4.6,8.6-6.9,18.6-6.9,30.1s2.4,21.1,7.1,29.7c4.8,8.6,11.5,15.2,20.4,19.8
			c8.9,4.6,19.2,6.9,31.2,6.9c9.2,0,17.5-1.7,24.7-5.1c7.3-3.4,13.1-8,17.6-13.9c3.8-5.1,6.4-10.6,7.8-16.6c0.4-1.6-0.8-3.1-2.4-3.1
			h-22.4c-1.1,0-2,0.7-2.4,1.7c-1.6,4.7-4.4,8.3-8.3,11c-4.5,3-10,4.5-16.6,4.5c-5.5,0-10.3-1.2-14.4-3.5c-4.1-2.3-7.3-5.5-9.7-9.7
			c-0.9-1.7-1.7-3.4-2.3-5.2c-0.6-1.9-1.1-3.9-1.5-5.9c-0.1-0.7-0.2-1.4-0.3-2.1c-0.2-1.5,1-2.7,2.5-2.7h77.1c1.2,0,2.3-0.9,2.5-2.2
			c0.1-0.9,0.2-1.8,0.2-2.8c0.1-1.7,0.1-3.3,0.1-4.8C439.1,592.6,436.7,583.2,431.9,575.1L431.9,575.1z M408.7,594.1h-48.3
			c-1.6,0-2.8-1.5-2.4-3c0.8-3.4,2.1-6.5,4-9.2c2.5-3.5,5.6-6.2,9.5-8.1c3.9-1.9,8.1-2.8,12.7-2.8c7.5,0,13.7,2,18.6,6
			c4.2,3.5,7,8.1,8.3,14C411.5,592.7,410.3,594.1,408.7,594.1L408.7,594.1z">
   </path>
  </g>
  <g>
   <path class="st0" d="M413.3,219.4h-47.6c-14.2,0-25.7,11.5-25.7,25.7v69.1c0,14.2-11.5,25.7-25.7,25.7H124.8
			c-14.2,0-25.7,11.5-25.7,25.7v47.6c0,14.2,11.5,25.7,25.7,25.7h200.4c14.2,0,25.6-11.5,25.6-25.7v-38.2
			c0-14.2,11.5-24.3,25.7-24.3h36.8c14.2,0,25.7-11.5,25.7-25.7v-80.2C439.1,230.6,427.5,219.4,413.3,219.4L413.3,219.4z">
   </path>
   <path class="st0" d="M99.1,124.8c0-14.2,11.5-25.7,25.7-25.7h189.3c14.2,0,25.7-11.5,25.7-25.7V25.7c0-14.2-11.5-25.7-25.7-25.7
			H113.9C99.6,0,88.1,11.5,88.1,25.7v36.7c0,14.2-11.5,25.7-25.7,25.7H25.7C11.5,88.2,0,99.7,0,113.9v80.3
			c0,14.2,11.6,25.2,25.8,25.2h47.6c14.2,0,25.7-11.5,25.7-25.7L99.1,124.8L99.1,124.8z">
   </path>
   <path class="st0" d="M197.1,169.4h45.7c14.9,0,27,12.1,27,27v45.7c0,14.9-12.1,27-27,27h-45.7c-14.9,0-27-12.1-27-27v-45.7
			C170.1,181.5,182.2,169.4,197.1,169.4z">
   </path>
  </g>
 </g>
</svg>