<svg width="48" height="48" viewBox="0 0 48 48" fill="none" xmlns="http://www.w3.org/2000/svg">
<rect width="48" height="48" fill="white"/>
<path d="M26.706 26.736L24.936 31.516C24.8879 31.6485 24.8879 31.7936 24.936 31.926L27.982 40.15L31.502 38.148L27.276 26.736C27.2544 26.6779 27.2155 26.6277 27.1646 26.5922C27.1136 26.5568 27.0531 26.5378 26.991 26.5378C26.929 26.5378 26.8684 26.5568 26.8174 26.5922C26.7665 26.6277 26.7276 26.6779 26.706 26.736ZM30.254 18.698C30.2324 18.6398 30.1935 18.5897 30.1426 18.5542C30.0916 18.5188 30.0311 18.4998 29.969 18.4998C29.907 18.4998 29.8464 18.5188 29.7954 18.5542C29.7445 18.5897 29.7056 18.6398 29.684 18.698L27.914 23.478C27.8659 23.6105 27.8659 23.7556 27.914 23.888L32.902 37.352L36.424 35.35L30.254 18.698Z" fill="black"/>
<path d="M23.996 8.23C24.0838 8.23328 24.1698 8.25581 24.248 8.296L37.678 15.932C37.7536 15.9752 37.8167 16.0374 37.8609 16.1125C37.9051 16.1876 37.9289 16.2729 37.93 16.36V31.63C37.93 31.808 37.834 31.97 37.678 32.058L24.248 39.696C24.1711 39.7392 24.0842 39.7613 23.996 39.76C23.909 39.7571 23.8237 39.7352 23.746 39.696L10.316 32.066C10.24 32.0226 10.1768 31.9601 10.1326 31.8846C10.0884 31.8092 10.0647 31.7235 10.064 31.636V16.364C10.064 16.186 10.16 16.024 10.316 15.934L23.746 8.298C23.8222 8.25461 23.9083 8.23121 23.996 8.23ZM23.996 6C23.52 6 23.04 6.12 22.612 6.366L9.18599 14C8.76642 14.2361 8.41704 14.5794 8.17353 14.9947C7.93003 15.41 7.80112 15.8826 7.79999 16.364V31.634C7.79999 32.608 8.32799 33.51 9.18599 33.996L22.614 41.634C23.0369 41.8727 23.5143 41.9981 24 41.9981C24.4856 41.9981 24.963 41.8727 25.386 41.634L38.814 33.998C39.2336 33.7619 39.5829 33.4186 39.8264 33.0033C40.07 32.588 40.1989 32.1154 40.2 31.634V16.364C40.1989 15.8826 40.07 15.41 39.8264 14.9947C39.5829 14.5794 39.2336 14.2361 38.814 14L25.382 6.366C24.9596 6.1258 24.4819 5.99967 23.996 6Z" fill="black"/>
<path d="M15.118 37.37L16.352 34.038L18.84 36.074L16.514 38.166L15.118 37.37ZM22.866 15.27H19.462C19.3379 15.2687 19.2165 15.3058 19.1144 15.3764C19.0123 15.447 18.9346 15.5474 18.892 15.664L11.594 35.368L15.118 37.37L23.152 15.672C23.1681 15.6265 23.173 15.5778 23.1662 15.53C23.1594 15.4822 23.1413 15.4367 23.1132 15.3975C23.0851 15.3582 23.048 15.3263 23.005 15.3045C22.9619 15.2826 22.9143 15.2695 22.866 15.27Z" fill="black"/>
<path d="M28.824 15.27H25.418C25.2942 15.2691 25.1732 15.3064 25.0715 15.377C24.9699 15.4475 24.8925 15.5477 24.85 15.664L16.516 38.164L20.038 40.164L29.108 15.672C29.124 15.6266 29.1289 15.5781 29.1223 15.5305C29.1156 15.4828 29.0976 15.4375 29.0698 15.3983C29.0419 15.3591 29.0051 15.3271 28.9623 15.3052C28.9195 15.2832 28.8721 15.2698 28.824 15.27Z" fill="black"/>
</svg>
