<svg width="49" height="48" viewBox="0 0 49 48" fill="none" xmlns="http://www.w3.org/2000/svg">
<rect width="48" height="48" transform="translate(0.165558)" fill="black"/>
<path d="M12.0287 10.3274C11.535 10.3274 11.0616 10.5189 10.7124 10.8598C10.3633 11.2006 10.1671 11.663 10.1669 12.1452V37.6726H33.3318C34.1157 37.6725 34.8675 37.3684 35.4219 36.827L37.2984 34.9942C37.573 34.7261 37.7907 34.4078 37.9393 34.0576C38.0878 33.7073 38.1642 33.3318 38.1642 32.9528V10.3274H12.0287ZM14.7032 13.8432H28.4471L19.3422 22.7361C19.116 22.9566 18.8095 23.0806 18.4899 23.0807C18.2617 23.0807 18.0381 23.0174 17.8452 22.8982C17.6524 22.7789 17.4981 22.6087 17.4004 22.4072L13.873 15.1229C13.8069 14.9862 13.7772 14.8354 13.7867 14.6845C13.7963 14.5337 13.8447 14.3876 13.9276 14.2599C14.0104 14.1322 14.125 14.027 14.2606 13.9542C14.3962 13.8813 14.5485 13.8432 14.7032 13.8432ZM13.7666 34.1568V25.504C13.7667 25.2823 13.857 25.0698 14.0175 24.9132C14.178 24.7565 14.3957 24.6685 14.6226 24.6685H23.4811L13.7666 34.1568ZM25.7396 22.4633C25.3344 22.8585 24.7853 23.0805 24.2127 23.0807H21.2794L30.105 14.4613C30.3054 14.2654 30.5435 14.1099 30.8055 14.0039C31.0675 13.8978 31.3483 13.8432 31.632 13.8432H34.5646L25.7396 22.4633Z" fill="white"/>
</svg>
